<svg xmlns="http://www.w3.org/2000/svg" viewBox="0 0 128 128">
  <defs>
    <linearGradient id="paper" x1="33" x2="93" y1="15" y2="111" gradientUnits="userSpaceOnUse">
      <stop offset="0" stop-color="#ffffff"/>
      <stop offset="1" stop-color="#dfe9f6"/>
    </linearGradient>
    <linearGradient id="navy" x1="31" x2="95" y1="17" y2="111" gradientUnits="userSpaceOnUse">
      <stop offset="0" stop-color="#123e82"/>
      <stop offset="1" stop-color="#041a3e"/>
    </linearGradient>
    <linearGradient id="gold" x1="39" x2="88" y1="56" y2="104" gradientUnits="userSpaceOnUse">
      <stop offset="0" stop-color="#f3d078"/>
      <stop offset="1" stop-color="#c9953c"/>
    </linearGradient>
    <filter id="shadow" x="-20%" y="-20%" width="140%" height="145%">
      <feDropShadow dx="0" dy="8" stdDeviation="8" flood-color="#082a62" flood-opacity=".2"/>
    </filter>
  </defs>
  <path d="M38 13h38l18 19v78c0 5.5-4.5 10-10 10H38c-5.5 0-10-4.5-10-10V23c0-5.5 4.5-10 10-10Z" fill="url(#paper)" filter="url(#shadow)"/>
  <path d="M76 13v19h18" fill="#cdd9e8"/>
  <rect x="40" y="40" width="41" height="6" rx="3" fill="#72819a"/>
  <rect x="40" y="54" width="34" height="6" rx="3" fill="#9aa7b8"/>
  <rect x="40" y="68" width="26" height="6" rx="3" fill="#b3bfcd"/>
  <circle cx="78" cy="83" r="25" fill="url(#navy)"/>
  <path d="M78 96V70m0 0-10 10m10-10 10 10" fill="none" stroke="url(#gold)" stroke-width="7" stroke-linecap="round" stroke-linejoin="round"/>
  <path d="M64 99h28" fill="none" stroke="#f7e0a4" stroke-width="6" stroke-linecap="round"/>
</svg>
