<svg xmlns="http://www.w3.org/2000/svg" viewBox="0 0 128 128">
  <defs>
    <linearGradient id="body" x1="25" x2="102" y1="18" y2="112" gradientUnits="userSpaceOnUse">
      <stop offset="0" stop-color="#123e82"/>
      <stop offset="0.58" stop-color="#082a62"/>
      <stop offset="1" stop-color="#041a3e"/>
    </linearGradient>
    <linearGradient id="gold" x1="28" x2="98" y1="16" y2="98" gradientUnits="userSpaceOnUse">
      <stop offset="0" stop-color="#f5d58b"/>
      <stop offset="1" stop-color="#c9953c"/>
    </linearGradient>
    <linearGradient id="screen" x1="37" x2="91" y1="26" y2="56" gradientUnits="userSpaceOnUse">
      <stop offset="0" stop-color="#f8fbff"/>
      <stop offset="1" stop-color="#dfe9f6"/>
    </linearGradient>
    <filter id="shadow" x="-20%" y="-20%" width="140%" height="145%">
      <feDropShadow dx="0" dy="8" stdDeviation="9" flood-color="#082a62" flood-opacity=".24"/>
    </filter>
  </defs>
  <rect x="25" y="14" width="78" height="100" rx="18" fill="url(#body)" filter="url(#shadow)"/>
  <path d="M43 27h42c4.4 0 8 3.6 8 8v18c0 4.4-3.6 8-8 8H43c-4.4 0-8-3.6-8-8V35c0-4.4 3.6-8 8-8Z" fill="url(#screen)"/>
  <path d="M58 39h13l8 7-8 7H58l-8-7 8-7Z" fill="url(#gold)"/>
  <path d="M64.5 38.5v15" fill="none" stroke="#082a62" stroke-width="3" stroke-linecap="round"/>
  <g fill="#eff5fd">
    <rect x="36" y="72" width="14" height="11" rx="4"/>
    <rect x="57" y="72" width="14" height="11" rx="4"/>
    <rect x="78" y="72" width="14" height="11" rx="4"/>
    <rect x="36" y="91" width="14" height="11" rx="4"/>
    <rect x="57" y="91" width="35" height="11" rx="4"/>
  </g>
  <rect x="78" y="91" width="14" height="11" rx="4" fill="url(#gold)"/>
  <path d="M39 22c5.8-3 14.9-4.9 24.6-4.9 8.8 0 17.1 1.5 23 4" fill="none" stroke="#ffffff" stroke-width="3" stroke-linecap="round" opacity=".32"/>
</svg>
