<svg width="720" height="560" viewBox="0 0 720 560" fill="none" xmlns="http://www.w3.org/2000/svg">
  <defs>
    <linearGradient id="phoneEdge" x1="377" y1="72" x2="640" y2="450" gradientUnits="userSpaceOnUse">
      <stop stop-color="#0B63F6"/>
      <stop offset="1" stop-color="#061F4C"/>
    </linearGradient>
    <linearGradient id="phoneFace" x1="426" y1="98" x2="593" y2="404" gradientUnits="userSpaceOnUse">
      <stop stop-color="#FFFFFF"/>
      <stop offset="1" stop-color="#F0F6FF"/>
    </linearGradient>
    <linearGradient id="boxTop" x1="91" y1="219" x2="384" y2="424" gradientUnits="userSpaceOnUse">
      <stop stop-color="#F6C15F"/>
      <stop offset="1" stop-color="#D9932D"/>
    </linearGradient>
    <linearGradient id="boxSide" x1="179" y1="268" x2="455" y2="438" gradientUnits="userSpaceOnUse">
      <stop stop-color="#EAA542"/>
      <stop offset="1" stop-color="#C97814"/>
    </linearGradient>
    <linearGradient id="pallet" x1="130" y1="407" x2="508" y2="498" gradientUnits="userSpaceOnUse">
      <stop stop-color="#0B63F6"/>
      <stop offset="1" stop-color="#073D9B"/>
    </linearGradient>
    <filter id="shadowLarge" x="49" y="58" width="607" height="468" filterUnits="userSpaceOnUse" color-interpolation-filters="sRGB">
      <feFlood flood-opacity="0" result="BackgroundImageFix"/>
      <feColorMatrix in="SourceAlpha" type="matrix" values="0 0 0 0 0 0 0 0 0 0 0 0 0 0 0 0 0 0 127 0" result="hardAlpha"/>
      <feOffset dy="22"/>
      <feGaussianBlur stdDeviation="20"/>
      <feComposite in2="hardAlpha" operator="out"/>
      <feColorMatrix type="matrix" values="0 0 0 0 0.0235 0 0 0 0 0.1215 0 0 0 0 0.298 0 0 0 0.18 0"/>
      <feBlend mode="normal" in2="BackgroundImageFix" result="effect1_dropShadow_1_1"/>
      <feBlend mode="normal" in="SourceGraphic" in2="effect1_dropShadow_1_1" result="shape"/>
    </filter>
    <filter id="softShadow" x="52" y="189" width="443" height="297" filterUnits="userSpaceOnUse" color-interpolation-filters="sRGB">
      <feFlood flood-opacity="0" result="BackgroundImageFix"/>
      <feColorMatrix in="SourceAlpha" type="matrix" values="0 0 0 0 0 0 0 0 0 0 0 0 0 0 0 0 0 0 127 0" result="hardAlpha"/>
      <feOffset dy="18"/>
      <feGaussianBlur stdDeviation="17"/>
      <feComposite in2="hardAlpha" operator="out"/>
      <feColorMatrix type="matrix" values="0 0 0 0 0.0235 0 0 0 0 0.1215 0 0 0 0 0.298 0 0 0 0.16 0"/>
      <feBlend mode="normal" in2="BackgroundImageFix" result="effect1_dropShadow_1_2"/>
      <feBlend mode="normal" in="SourceGraphic" in2="effect1_dropShadow_1_2" result="shape"/>
    </filter>
  </defs>
  <path d="M612 50h54v298h-54V50Z" fill="#EAF2FF" opacity=".5"/>
  <path d="M642 88h22v64h-22V88ZM642 174h22v64h-22V174ZM642 260h22v64h-22V260Z" fill="#DCEBFF"/>
  <path d="M38 113c74-42 174-48 250-13 33 15 58 37 85 59 34 27 71 54 121 55 31 1 62-8 88-24" stroke="#D4E4FA" stroke-width="3" stroke-linecap="round"/>
  <circle cx="76" cy="98" r="8" fill="#DCEBFF"/>
  <circle cx="338" cy="137" r="7" fill="#DCEBFF"/>
  <circle cx="578" cy="190" r="8" fill="#DCEBFF"/>
  <g filter="url(#shadowLarge)">
    <rect x="384" y="72" width="222" height="363" rx="45" fill="url(#phoneEdge)"/>
    <rect x="411" y="100" width="168" height="309" rx="32" fill="url(#phoneFace)"/>
    <rect x="468" y="91" width="53" height="8" rx="4" fill="#082A62"/>
    <rect x="445" y="178" width="103" height="103" rx="10" fill="#FFFFFF" stroke="#B8CDF2" stroke-width="5"/>
    <path d="M433 168v-30h30M560 168v-30h-30M433 292v30h30M560 292v30h-30" stroke="#0B63F6" stroke-width="10" stroke-linecap="round"/>
    <path d="M456 190h21v21h-21v-21ZM516 190h21v21h-21v-21ZM456 250h21v21h-21v-21ZM486 190h11v11h-11v-11ZM502 202h11v11h-11v-11ZM486 218h21v11h-21v-11ZM516 228h21v11h-21v-11ZM486 244h11v27h-11v-27ZM504 250h9v9h-9v-9ZM522 250h15v21h-15v-21Z" fill="#071D45"/>
    <path d="M432 229h128" stroke="#0B63F6" stroke-width="7" stroke-linecap="round"/>
  </g>
  <g filter="url(#softShadow)">
    <path d="M136 397h331l-40 62H94l42-62Z" fill="url(#pallet)"/>
    <path d="M129 424h310l-17 26H113l16-26Z" fill="#064BBE"/>
    <path d="M164 424h48l-19 26h-48l19-26ZM332 424h56l-18 26h-56l18-26Z" fill="#08357F"/>
    <rect x="78" y="292" width="143" height="117" rx="10" fill="url(#boxTop)"/>
    <path d="M78 292h143v34H78v-34Z" fill="#F6C96E" opacity=".65"/>
    <path d="M139 292h28v49h-28v-49Z" fill="#FFD889" opacity=".7"/>
    <rect x="209" y="252" width="146" height="157" rx="10" fill="url(#boxSide)"/>
    <path d="M209 252h146v42H209v-42Z" fill="#F5BE5D" opacity=".55"/>
    <path d="M270 252h31v61h-31v-61Z" fill="#FFD889" opacity=".55"/>
    <rect x="323" y="304" width="141" height="105" rx="10" fill="#E6972D"/>
    <path d="M323 304h141v32H323v-32Z" fill="#F5BE5D" opacity=".45"/>
    <path d="M384 304h26v44h-26v-44Z" fill="#FFD889" opacity=".5"/>
  </g>
</svg>
