<svg xmlns="http://www.w3.org/2000/svg" viewBox="0 0 360 300" role="img" aria-label="">
  <defs>
    <linearGradient id="circle" x1="62" y1="36" x2="290" y2="260" gradientUnits="userSpaceOnUse">
      <stop stop-color="#eef6ff"/>
      <stop offset="1" stop-color="#f8fbff"/>
    </linearGradient>
    <linearGradient id="box" x1="88" y1="94" x2="250" y2="230" gradientUnits="userSpaceOnUse">
      <stop stop-color="#ffffff"/>
      <stop offset="1" stop-color="#e8f1ff"/>
    </linearGradient>
    <filter id="shadow" x="-20%" y="-20%" width="140%" height="140%">
      <feDropShadow dx="0" dy="18" stdDeviation="18" flood-color="#082a62" flood-opacity=".14"/>
    </filter>
  </defs>
  <circle cx="180" cy="154" r="118" fill="url(#circle)"/>
  <g filter="url(#shadow)">
    <path d="M98 121 180 82l82 39-82 40-82-40z" fill="url(#box)" stroke="#9bb7dd" stroke-width="6" stroke-linejoin="round"/>
    <path d="M98 121v72l82 40v-72l-82-40z" fill="#f7fbff" stroke="#9bb7dd" stroke-width="6" stroke-linejoin="round"/>
    <path d="M262 121v72l-82 40v-72l82-40z" fill="#e7f1ff" stroke="#9bb7dd" stroke-width="6" stroke-linejoin="round"/>
    <path d="M138 101 220 140M222 101 140 140" stroke="#d0a14b" stroke-width="6" stroke-linecap="round"/>
  </g>
  <g stroke="#0b63f6" stroke-width="7" stroke-linecap="round" opacity=".65">
    <path d="M180 47v20"/>
    <path d="M132 64 146 79"/>
    <path d="M228 64 214 79"/>
  </g>
</svg>
